<mxfile host="app.diagrams.net" modified="2023-04-15T10:29:44.482Z" agent="Mozilla/5.0 (Macintosh; Intel Mac OS X 10_15_7) AppleWebKit/537.36 (KHTML, like Gecko) Chrome/112.0.0.0 Safari/537.36" etag="DbZvh2i_R55rK9-xIPJx" version="21.1.7" type="github">
  <diagram name="第 1 页" id="_z4_ye1DLHVFSzHZ4hZv">
    <mxGraphModel dx="954" dy="507" grid="1" gridSize="10" guides="1" tooltips="1" connect="1" arrows="1" fold="1" page="1" pageScale="1" pageWidth="827" pageHeight="1169" math="0" shadow="0">
      <root>
        <mxCell id="0" />
        <mxCell id="1" parent="0" />
        <mxCell id="rsKSWf-9VIVl_VVNFpVL-3" value="" style="edgeStyle=orthogonalEdgeStyle;rounded=0;orthogonalLoop=1;jettySize=auto;html=1;" edge="1" parent="1" source="rsKSWf-9VIVl_VVNFpVL-1" target="rsKSWf-9VIVl_VVNFpVL-2">
          <mxGeometry relative="1" as="geometry" />
        </mxCell>
        <mxCell id="rsKSWf-9VIVl_VVNFpVL-4" value="点击" style="edgeLabel;html=1;align=center;verticalAlign=middle;resizable=0;points=[];" vertex="1" connectable="0" parent="rsKSWf-9VIVl_VVNFpVL-3">
          <mxGeometry x="-0.24" y="-1" relative="1" as="geometry">
            <mxPoint as="offset" />
          </mxGeometry>
        </mxCell>
        <mxCell id="rsKSWf-9VIVl_VVNFpVL-1" value="自有/API广告" style="rounded=1;whiteSpace=wrap;html=1;" vertex="1" parent="1">
          <mxGeometry x="70" y="330" width="120" height="60" as="geometry" />
        </mxCell>
        <mxCell id="rsKSWf-9VIVl_VVNFpVL-6" value="" style="edgeStyle=orthogonalEdgeStyle;rounded=0;orthogonalLoop=1;jettySize=auto;html=1;" edge="1" parent="1" source="rsKSWf-9VIVl_VVNFpVL-2" target="rsKSWf-9VIVl_VVNFpVL-5">
          <mxGeometry relative="1" as="geometry" />
        </mxCell>
        <mxCell id="rsKSWf-9VIVl_VVNFpVL-7" value="是" style="edgeLabel;html=1;align=center;verticalAlign=middle;resizable=0;points=[];" vertex="1" connectable="0" parent="rsKSWf-9VIVl_VVNFpVL-6">
          <mxGeometry x="0.05" y="-1" relative="1" as="geometry">
            <mxPoint y="1" as="offset" />
          </mxGeometry>
        </mxCell>
        <mxCell id="rsKSWf-9VIVl_VVNFpVL-2" value="是否为H5打开方式" style="rhombus;whiteSpace=wrap;html=1;rounded=1;" vertex="1" parent="1">
          <mxGeometry x="280" y="320" width="80" height="80" as="geometry" />
        </mxCell>
        <mxCell id="rsKSWf-9VIVl_VVNFpVL-9" value="" style="edgeStyle=orthogonalEdgeStyle;rounded=0;orthogonalLoop=1;jettySize=auto;html=1;" edge="1" parent="1" source="rsKSWf-9VIVl_VVNFpVL-5" target="rsKSWf-9VIVl_VVNFpVL-8">
          <mxGeometry relative="1" as="geometry" />
        </mxCell>
        <mxCell id="rsKSWf-9VIVl_VVNFpVL-10" value="是" style="edgeLabel;html=1;align=center;verticalAlign=middle;resizable=0;points=[];" vertex="1" connectable="0" parent="rsKSWf-9VIVl_VVNFpVL-9">
          <mxGeometry x="-0.025" relative="1" as="geometry">
            <mxPoint as="offset" />
          </mxGeometry>
        </mxCell>
        <mxCell id="rsKSWf-9VIVl_VVNFpVL-12" style="edgeStyle=orthogonalEdgeStyle;rounded=0;orthogonalLoop=1;jettySize=auto;html=1;entryX=0;entryY=0.5;entryDx=0;entryDy=0;" edge="1" parent="1" source="rsKSWf-9VIVl_VVNFpVL-5" target="rsKSWf-9VIVl_VVNFpVL-11">
          <mxGeometry relative="1" as="geometry" />
        </mxCell>
        <mxCell id="rsKSWf-9VIVl_VVNFpVL-14" value="否" style="edgeLabel;html=1;align=center;verticalAlign=middle;resizable=0;points=[];" vertex="1" connectable="0" parent="rsKSWf-9VIVl_VVNFpVL-12">
          <mxGeometry x="-0.2909" y="3" relative="1" as="geometry">
            <mxPoint as="offset" />
          </mxGeometry>
        </mxCell>
        <mxCell id="rsKSWf-9VIVl_VVNFpVL-5" value="是否为直接下载类" style="rhombus;whiteSpace=wrap;html=1;rounded=1;" vertex="1" parent="1">
          <mxGeometry x="440" y="320" width="80" height="80" as="geometry" />
        </mxCell>
        <mxCell id="rsKSWf-9VIVl_VVNFpVL-13" style="edgeStyle=orthogonalEdgeStyle;rounded=0;orthogonalLoop=1;jettySize=auto;html=1;entryX=1;entryY=0.5;entryDx=0;entryDy=0;" edge="1" parent="1" source="rsKSWf-9VIVl_VVNFpVL-8" target="rsKSWf-9VIVl_VVNFpVL-11">
          <mxGeometry relative="1" as="geometry" />
        </mxCell>
        <mxCell id="rsKSWf-9VIVl_VVNFpVL-15" value="否" style="edgeLabel;html=1;align=center;verticalAlign=middle;resizable=0;points=[];" vertex="1" connectable="0" parent="rsKSWf-9VIVl_VVNFpVL-13">
          <mxGeometry x="-0.4182" y="-3" relative="1" as="geometry">
            <mxPoint as="offset" />
          </mxGeometry>
        </mxCell>
        <mxCell id="rsKSWf-9VIVl_VVNFpVL-17" value="" style="edgeStyle=orthogonalEdgeStyle;rounded=0;orthogonalLoop=1;jettySize=auto;html=1;" edge="1" parent="1" source="rsKSWf-9VIVl_VVNFpVL-8" target="rsKSWf-9VIVl_VVNFpVL-16">
          <mxGeometry relative="1" as="geometry" />
        </mxCell>
        <mxCell id="rsKSWf-9VIVl_VVNFpVL-18" value="是" style="edgeLabel;html=1;align=center;verticalAlign=middle;resizable=0;points=[];" vertex="1" connectable="0" parent="rsKSWf-9VIVl_VVNFpVL-17">
          <mxGeometry x="-0.0333" relative="1" as="geometry">
            <mxPoint as="offset" />
          </mxGeometry>
        </mxCell>
        <mxCell id="rsKSWf-9VIVl_VVNFpVL-8" value="是否展示确认弹窗" style="rhombus;whiteSpace=wrap;html=1;rounded=1;" vertex="1" parent="1">
          <mxGeometry x="600" y="320" width="80" height="80" as="geometry" />
        </mxCell>
        <mxCell id="rsKSWf-9VIVl_VVNFpVL-11" value="原来的点击响应逻辑" style="rounded=1;whiteSpace=wrap;html=1;" vertex="1" parent="1">
          <mxGeometry x="500" y="460" width="120" height="60" as="geometry" />
        </mxCell>
        <mxCell id="rsKSWf-9VIVl_VVNFpVL-16" value="展示确认弹窗" style="whiteSpace=wrap;html=1;rounded=1;" vertex="1" parent="1">
          <mxGeometry x="740" y="330" width="120" height="60" as="geometry" />
        </mxCell>
      </root>
    </mxGraphModel>
  </diagram>
</mxfile>
